<svg width="86" height="24" viewBox="0 0 86 24" fill="none" xmlns="http://www.w3.org/2000/svg">
<path d="M30.5465 19.4444V18.1017C31.098 19.0128 32.3208 19.7081 33.9033 19.7081C37.236 19.7081 39.5857 17.0947 39.5857 13.4502C39.5857 9.87772 37.4997 7.2403 34.0471 7.2403C32.4167 7.2403 31.098 7.91164 30.5945 8.65492V2.08533H27.022V19.4444H30.5465ZM35.9413 13.4742C35.9413 15.4643 34.6705 16.4473 33.2559 16.4473C31.8413 16.4473 30.5465 15.4403 30.5465 13.4742C30.5465 11.4602 31.8413 10.5251 33.2559 10.5251C34.6705 10.5251 35.9413 11.4602 35.9413 13.4742Z" fill="white"/>
<path d="M48.0255 19.4444H51.5261C51.5021 19.2526 51.4062 18.3894 51.4062 17.3105V7.52802H47.7617V14.3134C47.7617 15.5122 46.9945 16.3514 45.7717 16.3514C44.4769 16.3514 43.8535 15.4403 43.8535 14.2894V7.52802H40.2091V15.0567C40.2091 17.5982 41.8395 19.7081 44.7407 19.7081C45.9395 19.7081 47.3062 19.2766 47.9296 18.2456C47.9296 18.5573 47.9775 19.2286 48.0255 19.4444Z" fill="white"/>
<path d="M56.4609 19.4444V12.5871C56.4609 11.5081 57.1563 10.5251 58.427 10.5251C59.7457 10.5251 60.3451 11.4122 60.3451 12.5391V19.4444H63.9416V12.5631C63.9416 11.5081 64.637 10.5251 65.9317 10.5251C67.2264 10.5251 67.8258 11.4122 67.8258 12.5391V19.4444H71.3504V11.7239C71.3504 8.48708 69.1925 7.16837 66.9387 7.16837C65.3323 7.16837 64.1814 7.69585 63.2463 9.03854C62.6469 7.86369 61.4241 7.16837 59.7218 7.16837C58.427 7.16837 56.8925 7.83971 56.2931 8.89468V7.52802H52.8165V19.4444H56.4609Z" fill="white"/>
<path d="M76.3006 23.9999V18.5093C76.8521 19.1806 78.003 19.7081 79.5375 19.7081C82.8702 19.7081 85.2199 17.0947 85.2199 13.4502C85.2199 9.87772 83.134 7.2403 79.6813 7.2403C77.979 7.2403 76.6843 7.98357 76.1808 8.75082V7.52802H72.6562V23.9999H76.3006ZM81.6474 13.4742C81.6474 15.4643 80.3767 16.4473 78.9381 16.4473C77.5234 16.4473 76.2527 15.4403 76.2527 13.4742C76.2527 11.4842 77.5234 10.5251 78.9381 10.5251C80.3767 10.5251 81.6474 11.4842 81.6474 13.4742Z" fill="white"/>
<g clip-path="url(#clip0_213_436)">
<path d="M16.8235 13.4086C16.8235 17.1006 14.0373 19.7369 10.4273 19.7369C6.81729 19.7369 4.03113 17.0997 4.03113 13.4086C4.03113 9.71746 6.84195 7.10388 10.4273 7.10388C14.0127 7.10388 16.8235 9.71662 16.8235 13.4086ZM13.1404 13.4086C13.1404 11.3948 11.8319 10.4602 10.4265 10.4602C9.02106 10.4602 7.71257 11.3948 7.71257 13.4086C7.71257 15.4224 9.04486 16.3814 10.4265 16.3814C11.8081 16.3814 13.1404 15.4224 13.1404 13.4086Z" fill="#FF5000"/>
<path d="M0.779907 3.8762L3.31866 6.388C3.33651 6.37033 3.35352 6.35098 3.37222 6.33332C5.224 4.5399 7.72959 3.5515 10.4265 3.5515C13.1234 3.5515 15.6443 4.54074 17.4935 6.33668C17.5088 6.35182 17.5232 6.36781 17.5394 6.38295L20.0781 3.87116C20.0543 3.84844 20.0322 3.82489 20.0084 3.80134C17.4841 1.35011 14.0807 0 10.4265 0C6.77224 0 3.38838 1.34759 0.860678 3.79545C0.833471 3.82237 0.807114 3.84928 0.779907 3.8762Z" fill="#FF5000"/>
</g>
<defs>
<clipPath id="clip0_213_436">
<rect width="19.2982" height="19.7368" fill="white" transform="translate(0.779907)"/>
</clipPath>
</defs>
</svg>
