<?xml version="1.0" standalone="no"?>
<!DOCTYPE svg PUBLIC "-//W3C//DTD SVG 20010904//EN"
 "http://www.w3.org/TR/2001/REC-SVG-20010904/DTD/svg10.dtd">
<svg version="1.0" xmlns="http://www.w3.org/2000/svg"
 width="260.000000pt" height="260.000000pt" viewBox="0 0 260.000000 260.000000"
 preserveAspectRatio="xMidYMid meet">
<metadata>
Created by potrace 1.14, written by Peter Selinger 2001-2017
</metadata>
<g transform="translate(0.000000,260.000000) scale(0.100000,-0.100000)"
fill="#000000" stroke="none">
<path d="M1139 2576 c-2 -2 -33 -7 -68 -10 -343 -34 -713 -204 -980 -449 l-44
-40 165 -162 165 -162 64 55 c111 95 248 177 375 222 33 12 66 24 74 27 18 7
19 8 100 27 104 24 166 31 305 31 159 -1 227 -8 349 -40 197 -51 374 -143 521
-272 27 -23 53 -43 57 -43 4 0 80 70 167 157 101 99 158 161 153 168 -14 24
-168 149 -249 202 -96 63 -250 141 -348 178 -80 30 -267 79 -338 90 -27 3 -59
9 -70 12 -26 6 -392 14 -398 9z"/>
<path d="M1136 1644 c-328 -60 -576 -298 -649 -626 -14 -64 -17 -296 -4 -343
3 -11 12 -46 21 -78 41 -155 151 -314 287 -414 139 -103 293 -154 479 -159
181 -4 307 24 449 102 187 102 320 273 381 486 27 94 34 281 14 390 -28 156
-106 305 -219 418 -38 39 -77 72 -87 76 -10 3 -18 9 -18 14 0 16 -187 100
-270 121 -107 27 -275 32 -384 13z m318 -453 c135 -66 204 -201 193 -377 -6
-90 -4 -83 -40 -178 -15 -41 -95 -119 -149 -144 -164 -76 -355 -27 -446 115
-47 75 -65 150 -60 257 6 110 32 185 87 248 94 106 284 142 415 79z"/>
</g>
</svg>
